<svg width="14" height="12" viewBox="0 0 14 12" fill="none" xmlns="http://www.w3.org/2000/svg">
<path d="M12.8059 0.195262C13.0662 0.455612 13.0662 0.877722 12.8059 1.13807L2.13921 11.8047C1.87886 12.0651 1.45675 12.0651 1.1964 11.8047C0.936052 11.5444 0.936052 11.1223 1.1964 10.8619L11.8631 0.195262C12.1234 -0.0650874 12.5455 -0.0650874 12.8059 0.195262Z" fill="#000000"/>
<path d="M9.53415 1.58136C8.78328 1.22775 7.93666 1 7.00113 1C5.0384 1 3.46698 2.00246 2.3502 3.06645C1.23085 4.13289 0.504541 5.31979 0.217032 5.8332C0.0286175 6.16966 0.00617716 6.57141 0.160836 6.92824C0.268845 7.17745 0.452528 7.56349 0.72326 8.01148C0.913694 8.3266 1.32352 8.42767 1.63864 8.23724C1.95376 8.0468 2.05483 7.63697 1.8644 7.32185C1.64665 6.96154 1.49555 6.64993 1.40389 6.44295C1.6744 5.96622 2.31504 4.94155 3.26992 4.0318C4.25623 3.09211 5.51449 2.33333 7.00113 2.33333C7.53583 2.33333 8.04099 2.43149 8.51458 2.60093L9.53415 1.58136Z" fill="#000000"/>
<path d="M10.7948 4.09192C11.7152 4.98631 12.3338 5.9767 12.5984 6.44295C12.5067 6.64993 12.3556 6.96154 12.1379 7.32185C11.9474 7.63697 12.0485 8.0468 12.3636 8.23724C12.6787 8.42767 13.0886 8.3266 13.279 8.01148C13.5497 7.56349 13.7334 7.17745 13.8414 6.92824C13.9961 6.57141 13.9736 6.16966 13.7852 5.8332C13.5051 5.333 12.8085 4.19355 11.7377 3.14903L10.7948 4.09192Z" fill="#000000"/>
<path d="M7.00114 3.33333C7.24342 3.33333 7.47966 3.35918 7.70725 3.40827L6.33537 4.78015C5.76637 4.98096 5.31543 5.4319 5.11463 6.00089L3.74274 7.37278C3.69365 7.14518 3.66781 6.90894 3.66781 6.66667C3.66781 4.82572 5.16019 3.33333 7.00114 3.33333Z" fill="#000000"/>
<path d="M7.00114 8.66667C6.76722 8.66667 6.54269 8.62651 6.33404 8.55271L5.33335 9.55341C5.82389 9.83743 6.39353 10 7.00114 10C8.84209 10 10.3345 8.50762 10.3345 6.66667C10.3345 6.05906 10.1719 5.48942 9.88788 4.99888L8.88718 5.99957C8.96098 6.20821 9.00114 6.43275 9.00114 6.66667C9.00114 7.77124 8.10571 8.66667 7.00114 8.66667Z" fill="#000000"/>
</svg>
