<svg width="135" height="54" viewBox="0 0 135 54" fill="none" xmlns="http://www.w3.org/2000/svg">
<path d="M19.2874 38.689C20.5095 39.7966 22.3428 43.3867 0.0379401 46.1748V49.8414C-0.000253163 49.8414 29.3322 46.4804 19.2874 38.689Z" fill="url(#paint0_linear_13870_5112)"/>
<path d="M21.8083 43.8457C16.8814 49.3455 0 50.8733 0 50.8733V53.8141C28.263 49.9948 21.8083 43.8457 21.8083 43.8457Z" fill="url(#paint1_linear_13870_5112)"/>
<path d="M5.57621 12.4892C5.99633 12.1837 6.7984 11.9545 7.44769 11.3816V43.7695C9.20458 43.4639 11.1142 43.1584 12.451 42.8528V8.4789C12.7947 8.24974 13.826 7.56226 14.3225 7.06575V42.3181C16.7286 41.6688 18.3328 40.905 19.3258 40.0265V0C13.9023 5.0797 7.3713 9.31915 0 12.4128V44.8771C1.87147 44.6479 3.9721 44.4188 5.53802 44.1514V12.4892H5.57621Z" fill="url(#paint2_linear_13870_5112)"/>
<path d="M133.395 21.3691C133.662 21.2927 133.815 21.0635 133.815 20.7962C133.815 20.4524 133.548 20.1851 133.127 20.1851H132.631C132.555 20.1851 132.478 20.2614 132.478 20.3378V21.9801C132.478 22.0565 132.555 22.1329 132.631 22.1329C132.707 22.1329 132.784 22.0565 132.784 21.9801V21.4072H133.127L133.662 22.0565C133.7 22.0947 133.739 22.0947 133.777 22.0947C133.853 22.0947 133.93 22.0183 133.93 21.942C133.93 21.9038 133.93 21.8656 133.891 21.8656L133.395 21.3691ZM132.746 21.1399V20.4142H133.089C133.357 20.4142 133.509 20.5288 133.509 20.758C133.509 21.0253 133.357 21.1017 133.089 21.1017H132.746V21.1399Z" fill="black"/>
<path d="M133.013 19.1919C131.905 19.1919 131.027 20.1085 131.027 21.1779C131.027 22.2855 131.943 23.164 133.013 23.164C134.12 23.164 134.999 22.2474 134.999 21.1779C135.037 20.0703 134.12 19.1919 133.013 19.1919ZM133.013 22.9348C132.058 22.9348 131.256 22.171 131.256 21.1779C131.256 20.2231 132.02 19.4211 133.013 19.4211C133.967 19.4211 134.769 20.1849 134.769 21.1779C134.769 22.1328 134.006 22.9348 133.013 22.9348Z" fill="black"/>
<path d="M35.5814 19.498C35.7723 19.9563 36.1543 20.7202 36.6508 21.7132C37.1855 22.7444 37.7202 23.7374 38.2167 24.8069C38.7514 25.8381 39.3243 26.9457 39.9736 28.0915C40.5083 29.0081 40.7757 29.5428 40.852 29.6956C42.7235 25.4561 44.1749 22.0569 45.1297 19.498C46.9248 19.498 48.6053 19.4598 50.133 19.3452C50.2858 19.3452 50.4004 19.3452 50.4385 19.3452C50.7441 19.3452 50.8969 19.4598 50.8969 19.689C50.8969 19.9181 50.7823 19.9945 50.5531 19.9945C49.7129 19.9945 49.14 20.3 48.8726 20.8729C48.6053 21.4458 48.4525 22.8972 48.4525 25.1506V30.6886C48.4525 31.8344 48.6053 32.5983 48.9108 33.0566C49.2164 33.5149 49.6747 33.7441 50.3622 33.7823C50.6677 33.7823 50.8587 33.8968 50.8587 34.126C50.8587 34.2406 50.7823 34.317 50.6677 34.3934L47.4977 34.3552C46.5428 34.3552 45.2061 34.3934 43.5256 34.4697C43.3728 34.3552 43.2964 34.2788 43.2964 34.1642C43.2964 33.9732 43.4874 33.8587 43.8693 33.8205C44.2512 33.7441 44.5568 33.6677 44.7478 33.5149C44.9387 33.4003 45.0533 33.133 45.1297 32.7892C45.2061 32.4455 45.2825 31.949 45.2825 31.2615L45.3207 26.22C45.3207 23.6229 45.3207 22.1333 45.3207 21.7514C43.2582 26.5255 41.9978 29.5428 41.5013 30.8796L40.3555 33.935C40.2409 34.2406 40.0882 34.4316 39.9736 34.4316C39.8208 34.4316 39.668 34.2406 39.4771 33.8205C38.9424 32.6747 36.9563 28.8171 33.5953 22.3243C33.5571 24.1958 33.5571 26.7165 33.5571 29.8866C33.5571 31.5671 33.6335 32.6365 33.8245 33.0566C34.0154 33.4767 34.5502 33.7441 35.3904 33.8205C35.6578 33.8587 35.8105 33.9732 35.8105 34.126C35.8105 34.317 35.6959 34.4316 35.4668 34.4316C35.3904 34.4316 35.2758 34.4316 35.1994 34.4316C34.2828 34.3552 33.6335 34.317 33.2516 34.317C32.1822 34.317 31.3801 34.3552 30.8072 34.4316C30.6926 34.4316 30.6162 34.4697 30.5781 34.4697C30.3107 34.4697 30.1961 34.3552 30.1961 34.126C30.1961 34.0114 30.2343 33.935 30.3107 33.8968C30.3871 33.8587 30.5399 33.8205 30.8072 33.7441C31.5329 33.5913 31.9912 33.3621 32.2204 32.9802C32.4495 32.5983 32.5641 31.949 32.5641 31.1087L32.6023 24.6541C32.6023 23.1645 32.5641 22.2097 32.4877 21.7514C32.4113 21.2931 32.2204 20.9111 31.9148 20.6438C31.6093 20.3764 31.151 20.1855 30.4635 20.0709C30.1961 20.0327 30.0815 19.8799 30.0815 19.689C30.0815 19.4598 30.2343 19.3834 30.5017 19.3834C30.5781 19.3834 30.6544 19.3834 30.769 19.3834C31.6093 19.4598 33.1752 19.498 35.5814 19.498Z" fill="black"/>
<path d="M52.6158 19.3833C52.8831 19.3833 53.4178 19.4215 54.2581 19.4597C54.8692 19.4979 55.3657 19.4979 55.7476 19.4979L59.2232 19.4215C59.5287 19.4215 59.6815 19.5361 59.6815 19.727C59.6815 19.918 59.5669 20.0326 59.2996 20.0326C58.6885 20.109 58.3066 20.1854 58.1156 20.3763C57.9246 20.5291 57.7718 20.911 57.6573 21.4839C57.5427 22.0568 57.5045 23.3936 57.5045 25.456C57.5045 27.824 57.5427 29.6573 57.6191 30.9559C57.6955 32.2544 57.8482 33.0565 58.0774 33.362C58.3065 33.6676 58.6885 33.8204 59.2232 33.8204C59.6051 33.8204 59.7961 33.9349 59.7961 34.1259C59.7961 34.3933 59.6051 34.5078 59.185 34.5078C59.0704 34.5078 58.9176 34.5078 58.6885 34.5078C57.2753 34.3933 56.3205 34.3551 55.7858 34.3551C54.64 34.3551 53.7997 34.3933 53.265 34.4696C52.9595 34.5078 52.7685 34.5078 52.6539 34.5078C52.3866 34.5078 52.2338 34.3933 52.2338 34.1641C52.2338 33.9731 52.3484 33.8967 52.5776 33.8585C53.2268 33.7822 53.647 33.5912 53.8761 33.3238C54.1053 33.0565 54.2199 32.369 54.2963 31.3378C54.3345 30.3066 54.3726 28.6643 54.3726 26.4491C54.3726 24.1193 54.3345 22.5533 54.2581 21.7895C54.1817 20.9874 54.0289 20.5291 53.8379 20.3381C53.647 20.1472 53.265 20.0326 52.7303 19.9944C52.4248 19.9562 52.3102 19.8416 52.3102 19.6507C52.1956 19.4979 52.3484 19.3833 52.6158 19.3833Z" fill="black"/>
<path d="M65.0276 19.4216C68.6178 23.5465 71.6351 26.8311 74.0412 29.3137C74.0412 28.8171 74.0412 28.4734 74.0412 28.3206V23.852C74.0412 22.7826 73.9649 22.0569 73.8503 21.5986C73.7357 21.1403 73.4683 20.7966 73.0864 20.5292C72.7045 20.2619 72.2462 20.1091 71.7115 20.0709C71.4441 20.0327 71.2913 19.9181 71.2913 19.7271C71.2913 19.498 71.4059 19.3834 71.6733 19.3834C71.826 19.3834 72.017 19.3834 72.2462 19.4216C72.6663 19.4598 73.3156 19.498 74.1176 19.498C75.1488 19.498 75.9509 19.4598 76.4856 19.4216C76.7148 19.3834 76.9057 19.3834 77.0585 19.3834C77.3259 19.3834 77.4786 19.498 77.4786 19.7271C77.4786 19.9563 77.2877 20.0709 76.9057 20.1091C76.4474 20.1473 75.9891 20.3382 75.569 20.7202C75.1489 21.0639 74.9579 21.7896 74.9579 22.8208L74.9961 29.1991L74.9197 34.0114C74.9197 34.4316 74.8051 34.6225 74.5378 34.6225C74.4614 34.6225 74.385 34.5843 74.3086 34.5461C74.2322 34.5079 73.6975 33.9732 72.7427 32.9802C71.7878 31.9872 70.3747 30.4213 68.5414 28.3206C66.6699 26.22 65.3714 24.7305 64.6075 23.8138C64.6075 24.0048 64.5693 25.9145 64.5693 29.5046C64.5693 30.6122 64.6075 31.4907 64.7221 32.1018C64.7985 32.7129 65.104 33.1712 65.6005 33.4767C66.097 33.7441 66.5554 33.8968 66.9373 33.8968C67.2047 33.8968 67.3192 34.0114 67.3192 34.2024C67.3192 34.4316 67.1665 34.5461 66.8991 34.5461C66.7081 34.5461 66.5172 34.5461 66.2498 34.5079C65.7915 34.4316 65.2186 34.4316 64.5311 34.4316C63.4235 34.4316 62.5833 34.4697 62.0868 34.5461C61.7812 34.5843 61.5521 34.5843 61.3993 34.5843C61.0937 34.5843 60.941 34.4697 60.941 34.2024C60.941 34.0114 61.1701 33.8968 61.6666 33.8587C62.5069 33.7823 63.0416 33.5149 63.2707 32.9802C63.4999 32.4455 63.5763 31.758 63.5763 30.8414C63.5763 26.9457 63.5381 24.5777 63.4999 23.6992C63.4617 22.8208 63.1944 22.0569 62.6978 21.3313C62.2013 20.6438 61.5902 20.2237 60.8646 20.0709C60.559 20.0327 60.4062 19.9181 60.4062 19.7271C60.4062 19.4598 60.559 19.3452 60.8646 19.3452C60.941 19.3452 61.0555 19.3452 61.2083 19.3834C61.3993 19.3834 61.7048 19.4216 62.1631 19.4216C63.2707 19.3834 64.1874 19.3834 65.0276 19.4216Z" fill="black"/>
<path d="M78.8166 19.3066C82.7123 19.4212 85.615 19.4594 87.4865 19.4594C88.8996 19.4594 90.4656 19.4212 92.1843 19.3448C92.7954 19.3066 93.2919 19.3066 93.6738 19.3066C93.8266 19.3066 94.0939 19.3066 94.4377 19.3066C94.4759 19.6122 94.5523 20.2615 94.6286 21.2163L94.7814 23.0114C94.7814 23.3169 94.6668 23.4697 94.3995 23.4697C94.2085 23.4697 94.0175 23.2787 93.8648 22.935C93.5592 22.3239 93.2155 21.7892 92.7572 21.3691C92.2989 20.9489 91.8023 20.6434 91.1912 20.4906C90.6184 20.3379 89.6253 20.2615 88.2504 20.2615C88.1358 21.4073 88.0594 22.8586 88.0594 24.5773C88.0594 26.3342 88.0976 28.0529 88.174 29.6952C88.2504 31.3375 88.3267 32.3305 88.4413 32.6743C88.5559 33.018 88.7087 33.2472 88.9378 33.4381C89.167 33.5909 89.7399 33.7055 90.5802 33.7819C90.8857 33.8201 91.0385 33.8965 91.0385 34.0874C91.0385 34.3166 90.9239 34.393 90.6565 34.393H90.351L88.0212 34.3548C86.1879 34.3548 85.0803 34.3548 84.6984 34.393L83.2852 34.4312C83.1707 34.4312 82.9415 34.4312 82.5978 34.393C82.4068 34.3548 82.3304 34.2784 82.3304 34.1256C82.3304 33.8965 82.4832 33.7819 82.7505 33.7819C83.438 33.7819 83.9345 33.6291 84.2783 33.3618C84.622 33.0944 84.813 32.6361 84.8894 32.025C84.9657 31.4139 85.0039 30.1153 85.0039 28.0911C85.0039 24.8829 84.8894 22.2857 84.6984 20.2615C83.438 20.2615 82.5596 20.2997 81.9867 20.4142C81.4138 20.5288 80.9173 20.7962 80.3826 21.2545C79.886 21.7128 79.4659 22.2857 79.1222 23.0114C79.0076 23.2787 78.8548 23.4315 78.6639 23.4315C78.3965 23.4315 78.2819 23.3169 78.2819 23.0878C78.2819 23.0114 78.3201 22.5149 78.4347 21.5982C78.5875 20.6816 78.7021 19.9177 78.8166 19.3066Z" fill="black"/>
<path d="M104.596 26.0672C106.697 23.3173 107.766 21.6368 107.766 21.0257C107.766 20.8348 107.69 20.682 107.575 20.491C107.461 20.3 107.117 20.1473 106.544 19.9945C106.315 19.9181 106.2 19.8417 106.2 19.689C106.2 19.4598 106.353 19.3452 106.62 19.3452C106.697 19.3452 106.811 19.3452 106.926 19.3834C107.881 19.4598 108.606 19.498 109.141 19.498C109.676 19.498 110.325 19.4598 111.089 19.3834C111.242 19.3834 111.356 19.3452 111.433 19.3452C111.662 19.3452 111.776 19.4598 111.776 19.6508C111.776 19.8417 111.662 19.9563 111.433 19.9563C110.936 19.9945 110.478 20.1855 110.02 20.4528C109.599 20.7202 109.065 21.2931 108.454 22.0569C107.842 22.859 107.155 23.7756 106.429 24.8832C105.704 25.9526 105.284 26.6401 105.207 26.8693C105.131 27.0984 105.093 27.9387 105.093 29.3137C105.093 31.4525 105.207 32.7129 105.398 33.133C105.589 33.5531 106.086 33.7823 106.811 33.7823C107.079 33.7823 107.231 33.8968 107.231 34.126C107.231 34.3552 107.079 34.4698 106.773 34.4698C106.544 34.4698 105.933 34.4316 104.902 34.3552C104.329 34.317 103.909 34.317 103.641 34.317C102.801 34.317 101.884 34.3552 100.853 34.4698C100.662 34.4698 100.509 34.5079 100.395 34.5079C100.089 34.5079 99.9747 34.3934 99.9747 34.1642C99.9747 33.9732 100.089 33.8587 100.318 33.8587C101.044 33.7823 101.541 33.5149 101.732 33.133C101.923 32.7129 102.037 31.8344 102.037 30.4595C102.037 29.2373 101.961 28.397 101.808 27.9769C101.655 27.5568 101.235 26.7929 100.548 25.6853C99.8601 24.5777 99.1726 23.5083 98.4851 22.4771C97.7977 21.4458 97.263 20.7966 96.9192 20.5292C96.5373 20.2619 96.1554 20.0709 95.7352 19.9945C95.5061 19.9563 95.4297 19.8417 95.4297 19.689C95.4297 19.4598 95.5443 19.3452 95.8116 19.3452C95.9262 19.3452 96.1172 19.3452 96.3845 19.3834C97.5685 19.4598 98.4088 19.498 98.9435 19.498C99.7837 19.498 100.777 19.4598 101.846 19.3834C102.075 19.3834 102.266 19.3452 102.419 19.3452C102.686 19.3452 102.801 19.4598 102.801 19.6508C102.801 19.8417 102.648 19.9563 102.381 19.9945C101.617 20.0709 101.235 20.3382 101.235 20.8348C101.235 21.2931 102.343 23.05 104.596 26.0672Z" fill="black"/>
<path d="M116.628 19.4216C120.218 23.5465 123.235 26.8311 125.641 29.3137C125.641 28.8171 125.641 28.4734 125.641 28.3206V23.852C125.641 22.7826 125.565 22.0569 125.45 21.5986C125.336 21.1403 125.068 20.7966 124.686 20.5292C124.304 20.2619 123.846 20.1091 123.311 20.0709C123.044 20.0327 122.891 19.9181 122.891 19.7271C122.891 19.498 123.006 19.3834 123.273 19.3834C123.426 19.3834 123.617 19.3834 123.846 19.4216C124.266 19.4598 124.915 19.498 125.718 19.498C126.749 19.498 127.551 19.4598 128.086 19.4216C128.315 19.3834 128.506 19.3834 128.658 19.3834C128.926 19.3834 129.079 19.498 129.079 19.7271C129.079 19.9563 128.888 20.0709 128.506 20.1091C128.047 20.1473 127.589 20.3382 127.169 20.7202C126.749 21.0639 126.558 21.7896 126.558 22.8208L126.596 29.1991L126.52 34.0114C126.52 34.4316 126.405 34.6225 126.138 34.6225C126.061 34.6225 125.985 34.5843 125.909 34.5461C125.832 34.5079 125.297 33.9732 124.343 32.9802C123.388 31.9872 121.975 30.4213 120.141 28.3206C118.27 26.22 116.971 24.7305 116.207 23.8138C116.207 24.0048 116.169 25.9145 116.169 29.5046C116.169 30.6122 116.207 31.4907 116.322 32.1018C116.398 32.7129 116.704 33.1712 117.2 33.4767C117.697 33.7441 118.155 33.8968 118.537 33.8968C118.805 33.8968 118.919 34.0114 118.919 34.2024C118.919 34.4316 118.766 34.5461 118.499 34.5461C118.308 34.5461 118.117 34.5461 117.85 34.5079C117.391 34.4316 116.819 34.4316 116.131 34.4316C115.023 34.4316 114.183 34.4697 113.687 34.5461C113.381 34.5843 113.152 34.5843 112.999 34.5843C112.694 34.5843 112.541 34.4697 112.541 34.2024C112.541 34.0114 112.77 33.8968 113.267 33.8587C114.107 33.7823 114.641 33.5149 114.871 32.9802C115.1 32.4455 115.176 31.758 115.176 30.8414C115.176 26.9457 115.138 24.5777 115.1 23.6992C115.062 22.8208 114.794 22.0569 114.298 21.3313C113.801 20.6438 113.19 20.2237 112.464 20.0709C112.159 20.0327 112.006 19.9181 112.006 19.7271C112.006 19.4598 112.159 19.3452 112.464 19.3452C112.541 19.3452 112.655 19.3452 112.808 19.3834C112.999 19.3834 113.305 19.4216 113.763 19.4216C114.871 19.3834 115.787 19.3834 116.628 19.4216Z" fill="black"/>
<defs>
<linearGradient id="paint0_linear_13870_5112" x1="0.0127707" y1="44.2595" x2="21.3708" y2="44.2595" gradientUnits="userSpaceOnUse">
<stop stop-color="#D1A23C"/>
<stop offset="1" stop-color="#77502F"/>
</linearGradient>
<linearGradient id="paint1_linear_13870_5112" x1="0.0130239" y1="48.8194" x2="22.4587" y2="48.8194" gradientUnits="userSpaceOnUse">
<stop stop-color="#D1A23C"/>
<stop offset="1" stop-color="#77502F"/>
</linearGradient>
<linearGradient id="paint2_linear_13870_5112" x1="0.013826" y1="22.4497" x2="19.3326" y2="22.4497" gradientUnits="userSpaceOnUse">
<stop stop-color="#D1A23C"/>
<stop offset="1" stop-color="#77502F"/>
</linearGradient>
</defs>
</svg>
